<?xml version="1.0"?>

<svg version="1.1" id="Blanco" xmlns="http://www.w3.org/2000/svg" xmlns:xlink="http://www.w3.org/1999/xlink" x="0px" y="0px" viewBox="0 0 582.7 199.2" style="enable-background:new 0 0 582.7 199.2;" xml:space="preserve">



<g>
&#x9;<g>
&#x9;&#x9;<g>
&#x9;&#x9;&#x9;<path fill="#FFFFFF" d="M98.9,14.6c-46.5,0-84.3,38.3-84.3,85.2c0,46.9,37.9,85.2,84.3,85.2c46.4,0,84.3-38.3,84.3-85.2&#xA;&#x9;&#x9;&#x9;&#x9;C183.3,52.8,145.4,14.6,98.9,14.6z M98.9,181.5c-44.6,0-81-36.7-81-81.8c0-45,36.4-81.7,81-81.7c44.6,0,81,36.7,81,81.8&#xA;&#x9;&#x9;&#x9;&#x9;C179.9,144.8,143.5,181.5,98.9,181.5z"></path>
&#x9;&#x9;&#x9;<path fill="#FFFFFF" d="M98.9,22.6c-42.1,0-76.4,34.7-76.4,77.2c0,42.5,34.3,77.2,76.4,77.2c42.1,0,76.4-34.7,76.4-77.2&#xA;&#x9;&#x9;&#x9;&#x9;C175.4,57.2,141,22.6,98.9,22.6z M98.9,173.4c-40.2,0-73-33.1-73-73.7c0-40.6,32.8-73.7,73-73.7s73,33.1,73,73.7&#xA;&#x9;&#x9;&#x9;&#x9;C171.9,140.3,139.1,173.4,98.9,173.4z"></path>
&#x9;&#x9;&#x9;<g>
&#x9;&#x9;&#x9;&#x9;<path fill="#FFFFFF" d="M141.5,66.2C141.5,66.3,141.5,66.3,141.5,66.2C141.5,66.3,141.5,66.3,141.5,66.2&#xA;&#x9;&#x9;&#x9;&#x9;&#x9;C141.5,66.3,141.5,66.3,141.5,66.2z"></path>
&#x9;&#x9;&#x9;&#x9;<path fill="#FFFFFF" d="M150.6,148c-3.3,0.1-6.2-2.7-6.2-6.2v-22.3l0,0l4.7,2.2v22.7C149.2,145.6,149.6,146.8,150.6,148z"></path>
&#x9;&#x9;&#x9;&#x9;<path fill="#FFFFFF" d="M144.5,145.1c-3.3,0.1-6.2-2.7-6.2-6.2v-22.3l0,0l4.7,2.2v22.6C143,142.8,143.4,144,144.5,145.1z"></path>
&#x9;&#x9;&#x9;&#x9;<path fill="#FFFFFF" d="M136.9,116v22.5c0,1.3-1.1,2.4-2.4,2.4s-2.4-1.1-2.4-2.4v-24.7l0,0L136.9,116z"></path>
&#x9;&#x9;&#x9;&#x9;<path fill="#FFFFFF" d="M150.6,118.1c-3.3,0.1-6.2-2.6-6.2-6.2V91.6l0,0l4.7,2.2v20.7C149.2,115.7,149.6,116.9,150.6,118.1z"></path>
&#x9;&#x9;&#x9;&#x9;<path fill="#FFFFFF" d="M150.6,90.1c-3.3,0.1-6.2-2.7-6.2-6.2V65.1l0-1.8l4.7,2.2v20.9C149.2,87.8,149.6,88.9,150.6,90.1z"></path>
&#x9;&#x9;&#x9;&#x9;<path fill="#FFFFFF" d="M144.5,115.2c-3.3,0.1-6.2-2.6-6.2-6.2V88.7l0,0l4.7,2.2v20.7C143,112.9,143.4,114,144.5,115.2z"></path>
&#x9;&#x9;&#x9;&#x9;<path fill="#FFFFFF" d="M144.5,87.3c-3.3,0.1-6.2-2.6-6.2-6.2V70.7c1.7-1,3.5-2.3,4.7-4.2l0,17.2C143,85,143.4,86.1,144.5,87.3z"></path>
&#x9;&#x9;&#x9;&#x9;<path fill="#FFFFFF" d="M53.4,119.5v22.3c0,3.5-2.8,6.2-6.2,6.2c1-1.2,1.4-2.3,1.4-3.6v-22.7L53.4,119.5L53.4,119.5z"></path>
&#x9;&#x9;&#x9;&#x9;<path fill="#FFFFFF" d="M59.6,116.7V139c0,3.5-2.8,6.2-6.2,6.2c1-1.2,1.4-2.3,1.4-3.6v-22.6L59.6,116.7L59.6,116.7z"></path>
&#x9;&#x9;&#x9;&#x9;<path fill="#FFFFFF" d="M65.7,113.8v24.7c0,1.3-1.1,2.4-2.4,2.4c-1.3,0-2.4-1.1-2.4-2.4V116L65.7,113.8L65.7,113.8z"></path>
&#x9;&#x9;&#x9;&#x9;<path fill="#FFFFFF" d="M53.4,91.6v20.3c0,3.5-2.8,6.2-6.2,6.2c1-1.2,1.4-2.3,1.4-3.6V93.8L53.4,91.6L53.4,91.6z"></path>
&#x9;&#x9;&#x9;&#x9;<path fill="#FFFFFF" d="M59.6,88.7v20.3c0,3.5-2.8,6.2-6.2,6.2c1-1.2,1.4-2.3,1.4-3.6V90.9L59.6,88.7L59.6,88.7z"></path>
&#x9;&#x9;&#x9;&#x9;<path fill="#FFFFFF" d="M102.8,42.6c3.8,3.4,6.2,3.3,6.2,3.3c-10.7,3.3-12.1-6.5-12.1-6.5l-3.4-1.9c-0.7-0.4-0.9-1.4-0.3-2&#xA;&#x9;&#x9;&#x9;&#x9;&#x9;c0.4-0.4,1.2-0.5,1.7-0.2c0.1,0.1,0.3,0.2,0.5,0.3c7.2,3.4,12.7,0.8,15.4-0.2c-1.7,3.6-6,4-6,4c1.8,1.4,3.6,1.1,5.9,1.3&#xA;&#x9;&#x9;&#x9;&#x9;&#x9;C108,42.9,104.6,42.7,102.8,42.6z"></path>
&#x9;&#x9;&#x9;&#x9;<path fill="#FFFFFF" d="M147.2,55.4c-0.6-3.7-2.3-6.6-5.9-9.2c-6.2-4.3-11.2-1.4-13.9,1.5c-2.6,2.9-1,7.1-0.7,8.7&#xA;&#x9;&#x9;&#x9;&#x9;&#x9;c0.3,3-0.6,6.6-6.8,7.1c-8.1,0.5-10.7-7.4-11.6-9.9c-5.3,1.1-8.4-0.6-8.4-0.6l-1.2,7.5c0.1-0.1,0.2-0.2,0.3-0.3&#xA;&#x9;&#x9;&#x9;&#x9;&#x9;c0.4-0.3,0.9-0.5,1.4-0.5l1.1,0c0.4,0,0.9,0.1,1.2,0.4c0.5,0.4,1,0.9,1.6,1.6c3.4,3.6,10.3,11,26.5,14.2l0-2.5&#xA;&#x9;&#x9;&#x9;&#x9;&#x9;c-2.3-0.4-4.9-1.5-7.6-3.8c2,0.9,3.8,1.4,5.4,1.6c3.1,0.2,4.6-0.3,6.7-1.1c0.5-0.2,1.2-0.7,1.4-0.8c-2.7-0.6-6-2.2-9.1-5.4&#xA;&#x9;&#x9;&#x9;&#x9;&#x9;c6.7,4,11.5,3.1,13.9,2.1c-3.2-0.7-7.1-3.1-9.9-7.7c4.4,3.7,8.5,4.6,11.6,4.5c-2.2-2.1-4.3-5.6-5.3-10.4c2.2,4.4,4.7,6.9,7,8.3&#xA;&#x9;&#x9;&#x9;&#x9;&#x9;l3.3,1.5c0,0,0,0,0.1,0c0.5,0.1,1,0.2,1.4,0.3C149.3,61.8,147.6,59.4,147.2,55.4z M136.9,88.1l-2.3-1.1c0.1-1.2,0.3-2.3,0.3-3.6&#xA;&#x9;&#x9;&#x9;&#x9;&#x9;c1,0.6,2.1,1,3.4,1c-1-1.2-1.4-2.4-1.4-3.6v-9.4c-0.8,0.4-1.6,0.7-2.3,0.9c0,0-0.1,0-0.1,0.1c-0.8,0.3-1.5,0.5-2.1,0.5&#xA;&#x9;&#x9;&#x9;&#x9;&#x9;c-0.1,0-0.1,0-0.1,0l0,4.9c-0.9-0.1-1.9-0.3-2.2-0.4c-16.3-3.4-23.3-10.9-26.8-14.6c-0.6-0.6-1-1.1-1.4-1.4c0,0-0.2-0.1-0.3-0.1&#xA;&#x9;&#x9;&#x9;&#x9;&#x9;l-1.1,0c-0.2,0-0.3,0-0.4,0.1c-1.5,1.6-3.5,3.5-4.3,4.2c0,0-2.6-1.4-2.6-1.5c-0.4-0.2-0.9-0.1-1.1,0.3c-0.2,0.3-0.6,0.9-0.9,1.3&#xA;&#x9;&#x9;&#x9;&#x9;&#x9;c-0.3,0.4-0.6,0.7-0.9,1c-4.3,3.3-11.4,8.1-19.8,10c-0.9,0.2-4.3,0.8-4.5,0.8l0-4.7c-1.4-0.1-3.1-0.7-4.7-1.9v9.8&#xA;&#x9;&#x9;&#x9;&#x9;&#x9;c0,1.3-0.4,2.4-1.4,3.6c1.2,0,2.3-0.3,3.3-0.9c0.1,1.2,0.2,2.4,0.3,3.5l-2.2,1v20.7c0,1.3-0.4,2.4-1.4,3.6&#xA;&#x9;&#x9;&#x9;&#x9;&#x9;c3.3,0.1,6.2-2.7,6.2-6.2v-4.1c0.9,3.6,1.9,7,3.2,10.2l-1.8,0.8l0,22.6c0,1.4,1.3,2.6,2.7,2.4c1.2-0.2,2-1.3,2-2.5v-16.6&#xA;&#x9;&#x9;&#x9;&#x9;&#x9;c0.4,0.9,0.9,1.8,1.4,2.6v11.2c0,1.3,1.1,2.4,2.5,2.4c1.4,0,2.5-1.1,2.5-2.4v-3.5c2.9,3.8,6.2,7.5,10,11.1&#xA;&#x9;&#x9;&#x9;&#x9;&#x9;c-0.2,0.5-0.4,1.1-0.4,1.2c-1.5,4.1-4.6,9.8-9.8,12.2c2.1,2.1,4.5,4.2,7.2,6.2l5.3-14.7c0.4-1.1,1.6-0.4,1.2,0.7l-5.1,15&#xA;&#x9;&#x9;&#x9;&#x9;&#x9;c1.6,1.1,3.2,2.2,5,3.3l3.8-14.7c0.4-1.4,1.5-0.8,1.4,0l-3.1,16l-0.4,1.6l10.9-0.1l-0.3-1.5l-3.1-16.1c-0.1-0.8,1-1.4,1.4,0&#xA;&#x9;&#x9;&#x9;&#x9;&#x9;l3.8,14.8c1.7-1.1,3.4-2.2,5-3.3l-5.2-15.1c-0.4-1.1,0.8-1.8,1.2-0.7l5.4,14.8c2.7-2,5.1-4,7.3-6.2c-5.4-2.4-8.5-8.4-10-12.6&#xA;&#x9;&#x9;&#x9;&#x9;&#x9;l-0.3-0.7c3.9-3.7,7.3-7.4,10.2-11.3v3.7c0,1.3,1.1,2.4,2.5,2.4c1.4,0,2.5-1.1,2.5-2.4v-11.4c0.5-0.9,1-1.7,1.4-2.7v16.8&#xA;&#x9;&#x9;&#x9;&#x9;&#x9;c0,1.2,0.8,2.3,2,2.5c1.5,0.2,2.7-0.9,2.7-2.4v-22.6l-1.9-0.9c1.3-3.4,2.4-6.9,3.3-10.6v4.5c0,3.5,2.8,6.2,6.2,6.2&#xA;&#x9;&#x9;&#x9;&#x9;&#x9;c-1-1.2-1.4-2.3-1.4-3.6V88.1z M133.5,82.2c-0.1,1.4-0.2,2.8-0.4,4.2c-0.3,2.7-0.6,5.2-1,7.7c-1,6.4-2.6,12.3-4.6,17.6&#xA;&#x9;&#x9;&#x9;&#x9;&#x9;c-0.5,1.2-1,2.5-1.5,3.6c-0.4,1-0.9,2-1.4,2.9c-1.5,2.9-3.1,5.7-5,8.4c-5.2,7.4-12,14.1-20.7,20.8c-8.6-6.6-15.4-13.3-20.6-20.6&#xA;&#x9;&#x9;&#x9;&#x9;&#x9;c-1.9-2.7-3.6-5.4-5-8.3c-0.5-1-1-1.9-1.4-2.9c-0.6-1.2-1.1-2.5-1.6-3.8c-2-5.2-3.5-10.8-4.5-16.9c-0.4-2.7-0.8-5.5-1.1-8.4&#xA;&#x9;&#x9;&#x9;&#x9;&#x9;c-0.1-1.3-0.3-2.7-0.4-4.1c0-0.4-0.1-0.8-0.1-1.1c0.3,0,0.6-0.1,0.9-0.1c13.3-2,24.7-6.9,33.8-16.3c9.1,9.3,20.8,13.9,33.9,16.3&#xA;&#x9;&#x9;&#x9;&#x9;&#x9;c0.3,0.1,0.5,0.1,0.8,0.1C133.6,81.5,133.6,81.9,133.5,82.2z M107.5,48.5c0,0-10.3,1.9-12.3-7.6c-1.9-1-3.3-1.6-3.3-1.6&#xA;&#x9;&#x9;&#x9;&#x9;&#x9;l-0.4,0.9c0,0-1.2-0.7-3-0.6c-2.7-0.1-4.8,2.4-4.3,4.8c0,0,1.2-0.9,2.7-1c0,0.5,0,1.1,0.3,1.8c0.4,1.3,2.4,2.9,4.3,4&#xA;&#x9;&#x9;&#x9;&#x9;&#x9;c-0.2,2-0.6,4.5-1.6,6.7c0,0.1-0.8,1.7-0.8,1.8c-1.5,2.7-5,7.7-11.2,5.9c-2.5-0.7-5.1-4.3-6.7-7.2c0.3-1.6,2-5.8-0.6-8.7&#xA;&#x9;&#x9;&#x9;&#x9;&#x9;c-2.6-3-7.6-5.9-13.9-1.6c-3.6,2.6-5.4,5.5-6,9.2c-0.4,3.3-1.6,5.5-2.4,6.7c0.7,0,1.8-0.1,3.1-0.6l1.4-0.6&#xA;&#x9;&#x9;&#x9;&#x9;&#x9;c2.5-1.2,5.6-3.8,8.1-8.8c-1.1,5.3-3.6,8.9-6,10.9c3.2,0.2,7.4-0.7,11.9-4.4c-2.8,4.6-6.7,6.9-9.9,7.6c2.4,1,7.2,2,13.9-2&#xA;&#x9;&#x9;&#x9;&#x9;&#x9;c-3.1,3.2-6.4,4.8-9.1,5.3c0.4,0.3,1.2,0.9,2.5,1.4c0.3,0.1,0.6,0.2,0.9,0.3c0,0,0.1,0,0.1,0c2.3,0.6,5.6,0.6,9.9-1.4&#xA;&#x9;&#x9;&#x9;&#x9;&#x9;c-1.1,0.9-2.2,1.7-3.3,2.2c-1.6,0.9-3.3,1.3-4.7,1.5l0,0l0,0l0,2.4c9.2-1.3,17.5-6.8,22.2-10.4c0.3-0.2,0.6-0.5,0.8-0.8&#xA;&#x9;&#x9;&#x9;&#x9;&#x9;c0.5-0.6,1.3-1.7,1.6-2.2c0.3-0.5,1-0.6,1.4-0.2l3,1.8c1.1-5.1,2.2-13.5,2.2-13.5s4.9,4.1,12.2,0.1&#xA;&#x9;&#x9;&#x9;&#x9;&#x9;C108.8,49.8,107.5,48.5,107.5,48.5z"></path>
&#x9;&#x9;&#x9;&#x9;<path fill="#FFFFFF" d="M125.4,86.6c-10.1-2.8-18.6-6.7-26-11.7l-0.5-0.3l-0.5,0.3c-7.4,5-15.9,8.8-26,11.7l-0.7,0.2l0.1,0.7&#xA;&#x9;&#x9;&#x9;&#x9;&#x9;c2,28.5,14,40.9,26.6,50.1l0.5,0.4l0.5-0.4C112,128.4,124,116,126,87.5l0.1-0.7L125.4,86.6z M90,81.9c3.1-1.5,6.1-3.2,8.9-5.1&#xA;&#x9;&#x9;&#x9;&#x9;&#x9;c2.5,1.7,5,3.2,7.8,4.5v5.1c-0.6-0.1-1.2-0.1-1.8-0.1c-2.2,0-4.1,0.5-5.8,1.6l-0.1,0l-0.1,0c-1.7-1-3.6-1.6-5.8-1.6&#xA;&#x9;&#x9;&#x9;&#x9;&#x9;c-1,0-2,0.1-3,0.3V81.9z M88.2,126.3c-7.4-8.2-13.2-19.7-14.7-38.2c5.3-1.5,10.2-3.3,14.7-5.4v4.1c0,0-0.1,0-0.1,0&#xA;&#x9;&#x9;&#x9;&#x9;&#x9;c-1.3,0.2-2.5,0.4-3.6,0.4c-1.8,0-2.9-0.5-2.9-0.5v28c0,0,3.4,0.9,5,0.9c0.5,0,1.1,0,1.7-0.1V126.3z M88.2,112.6&#xA;&#x9;&#x9;&#x9;&#x9;&#x9;c-0.6,0-1.1,0.1-1.7,0.1c-1.2,0-2.4-0.1-3.4-0.5V88.6c0.5,0.1,0.9,0.1,1.4,0.1c1.1,0,2.4-0.2,3.7-0.4c0.6-0.1,1.2-0.2,1.8-0.3&#xA;&#x9;&#x9;&#x9;&#x9;&#x9;c1-0.1,2-0.3,3-0.3c1.7,0,3.4,0.3,5,1.3v23.8c-0.3-0.1-0.7-0.3-1.1-0.3c-0.2,0-0.4-0.1-0.5-0.1c-0.2,0-0.5-0.1-0.7-0.1&#xA;&#x9;&#x9;&#x9;&#x9;&#x9;c-0.2,0-0.4-0.1-0.7-0.1H95c-0.1,0-0.3,0-0.4,0c0,0-0.1,0-0.1,0h0c-0.1,0-0.2,0-0.3,0c0,0,0,0,0,0c-0.1,0-0.3,0-0.4,0&#xA;&#x9;&#x9;&#x9;&#x9;&#x9;c-0.1,0-0.2,0-0.3,0h-0.1c-0.1,0-0.1,0-0.2,0c-1,0-2,0.1-3,0.2H90C89.4,112.5,88.8,112.5,88.2,112.6z M106.6,129.3&#xA;&#x9;&#x9;&#x9;&#x9;&#x9;c-2.5,2.4-5.1,4.5-7.8,6.4c-3-2.2-6.1-4.7-8.9-7.5v-12.7c0,0,0.1,0,0.1,0c1.2-0.1,2.4-0.2,3.5-0.2c1.9,0,3.2,0.3,4,0.7&#xA;&#x9;&#x9;&#x9;&#x9;&#x9;c0.8,0.3,1.8,0.4,2.6,0c0.9-0.4,2.2-0.7,3.9-0.7c0.8,0,1.6,0,2.4,0.1V129.3z M106.6,112.3c-0.1,0-0.3,0-0.4,0&#xA;&#x9;&#x9;&#x9;&#x9;&#x9;c-0.1,0-0.2,0-0.2,0h-0.2c-0.1,0-0.3,0-0.4,0c-0.1,0-0.3,0-0.5,0c-0.1,0-0.2,0-0.4,0s-0.2,0-0.4,0c-0.2,0-0.4,0-0.6,0&#xA;&#x9;&#x9;&#x9;&#x9;&#x9;c-0.2,0-0.4,0-0.6,0c-0.2,0-0.4,0-0.6,0c-0.2,0-0.4,0-0.6,0.1c-0.2,0-0.4,0-0.5,0.1c-0.2,0-0.4,0.1-0.5,0.1&#xA;&#x9;&#x9;&#x9;&#x9;&#x9;c-0.4,0.1-0.7,0.2-1.1,0.3V89.1c1.6-1,3.3-1.3,5-1.3c0.6,0,1.2,0,1.8,0.1h0.1c0.1,0,0.1,0,0.2,0c0.4,0,0.9,0.1,1.3,0.2&#xA;&#x9;&#x9;&#x9;&#x9;&#x9;c0.1,0,0.1,0,0.2,0c0.9,0.1,1.9,0.3,2.7,0.4c0.1,0,0.3,0,0.4,0c0.3,0,0.5,0.1,0.8,0.1c0.3,0,0.6,0,0.9,0c0.5,0,1,0,1.4-0.1v23.5&#xA;&#x9;&#x9;&#x9;&#x9;&#x9;c-1,0.4-2.2,0.5-3.4,0.5h0c-0.5,0-0.9,0-1.4,0c-0.1,0-0.2,0-0.3,0c-0.4,0-0.8-0.1-1.2-0.1c-0.2,0-0.4,0-0.6,0&#xA;&#x9;&#x9;&#x9;&#x9;&#x9;C107.4,112.4,107,112.4,106.6,112.3z M108.4,127.5v-12c1,0.1,1.9,0.1,2.9,0.1c2.9,0,5-1,5-1V86.7c0,0-1.2,0.5-3,0.5&#xA;&#x9;&#x9;&#x9;&#x9;&#x9;c-1,0-2.3-0.2-3.6-0.4c-0.4-0.1-0.9-0.1-1.3-0.2v-4.4c4.8,2.3,10,4.3,15.8,5.9C122.7,107.6,116.3,119.2,108.4,127.5z"></path>
&#x9;&#x9;&#x9;&#x9;<path fill="#FFFFFF" d="M69,82.1l-1,0.2l0.5,2.2c0.1,0.5-0.1,0.8-0.5,0.9c-0.5,0.1-0.8-0.1-0.9-0.6l-0.5-2.2l-1,0.2l0.5,2.2&#xA;&#x9;&#x9;&#x9;&#x9;&#x9;c0.3,1,1.1,1.2,2,1c0.9-0.2,1.6-0.8,1.3-1.8L69,82.1z"></path>
&#x9;&#x9;&#x9;&#x9;<polygon fill="#FFFFFF" points="70.6,82.6 72.5,85 73.9,84.6 72.9,81.1 72,81.3 72.7,83.9 72.7,83.9 70.8,81.6 69.5,82 70.5,85.5 &#xA;&#x9;&#x9;&#x9;&#x9;&#x9;71.3,85.3 70.6,82.6 &#x9;&#x9;&#x9;&#x9;"></polygon>
&#x9;&#x9;&#x9;&#x9;<polygon fill="#FFFFFF" points="75.4,84.1 74.3,80.6 73.4,80.9 74.4,84.4 &#x9;&#x9;&#x9;&#x9;"></polygon>
&#x9;&#x9;&#x9;&#x9;<polygon fill="#FFFFFF" points="78.1,83.2 78.2,79.3 77.2,79.7 77.2,82.4 77.2,82.4 75.6,80.2 74.6,80.5 76.9,83.6 &#x9;&#x9;&#x9;&#x9;"></polygon>
&#x9;&#x9;&#x9;&#x9;<polygon fill="#FFFFFF" points="82.2,81.7 82,81.1 80.3,81.7 80,80.9 81.6,80.4 81.3,79.7 79.8,80.3 79.5,79.6 81.2,79 80.9,78.3 &#xA;&#x9;&#x9;&#x9;&#x9;&#x9;78.4,79.3 79.6,82.7 &#x9;&#x9;&#x9;&#x9;"></polygon>
&#x9;&#x9;&#x9;&#x9;<path fill="#FFFFFF" d="M85.1,79.5C84.9,79,84.6,78.8,84,79v0c0.4-0.2,0.7-0.7,0.5-1.2c-0.3-0.7-1.1-0.6-1.7-0.3l-1.6,0.6l1.4,3.4&#xA;&#x9;&#x9;&#x9;&#x9;&#x9;l0.9-0.4l-0.5-1.3l0.4-0.1c0.5-0.2,0.6,0,0.8,0.3c0.1,0.2,0.2,0.5,0.4,0.7l1-0.4C85.4,80.1,85.3,79.8,85.1,79.5z M83.2,79&#xA;&#x9;&#x9;&#x9;&#x9;&#x9;l-0.4,0.1l-0.3-0.8l0.4-0.1c0.3-0.1,0.6-0.2,0.8,0.1C83.8,78.7,83.5,78.9,83.2,79z"></path>
&#x9;&#x9;&#x9;&#x9;<path fill="#FFFFFF" d="M85.7,78.4c0.9,0,1.5-0.4,1.7,0c0.1,0.2-0.1,0.5-0.3,0.6c-0.3,0.2-0.6,0.1-0.8-0.2l-0.9,0.4&#xA;&#x9;&#x9;&#x9;&#x9;&#x9;c0.4,0.9,1.2,0.8,2,0.5c0.8-0.3,1.3-1,1-1.7c-0.4-0.9-1.2-0.6-1.8-0.5c-0.3,0-0.6,0.1-0.7-0.1c-0.1-0.2,0-0.4,0.3-0.5&#xA;&#x9;&#x9;&#x9;&#x9;&#x9;c0.2-0.1,0.3-0.1,0.4-0.1c0.1,0,0.2,0.1,0.3,0.2l0.9-0.4c-0.3-0.8-1.1-0.7-1.8-0.4c-0.7,0.3-1.3,0.8-1,1.6&#xA;&#x9;&#x9;&#x9;&#x9;&#x9;C85,78.1,85.3,78.4,85.7,78.4z"></path>
&#x9;&#x9;&#x9;&#x9;<polygon fill="#FFFFFF" points="90.2,78.2 88.6,74.9 87.7,75.3 89.3,78.6 &#x9;&#x9;&#x9;&#x9;"></polygon>
&#x9;&#x9;&#x9;&#x9;<path fill="#FFFFFF" d="M93,74.6c-0.6-1.2-1.6-1.2-2.7-0.6L89,74.7l1.7,3.2l1.3-0.7C93.2,76.6,93.7,75.8,93,74.6z M91.7,76.6&#xA;&#x9;&#x9;&#x9;&#x9;&#x9;l-0.4,0.2l-1.1-2l0.4-0.2c0.5-0.3,1.1-0.2,1.5,0.5C92.4,75.8,92.1,76.3,91.7,76.6z"></path>
&#x9;&#x9;&#x9;&#x9;<path fill="#FFFFFF" d="M94.2,71.7l-1.1,0.6l0.6,3.9l0.9-0.5L94.5,75l1.3-0.7l0.6,0.5l1-0.6L94.2,71.7z M94.3,74.2L94,72.7l0,0&#xA;&#x9;&#x9;&#x9;&#x9;&#x9;l1.2,1.1L94.3,74.2z"></path>
&#x9;&#x9;&#x9;&#x9;<path fill="#FFFFFF" d="M99.5,70.5c-0.8-1.1-1.7-1-2.7-0.3L95.5,71l2,3l1.3-0.9C99.8,72.4,100.2,71.6,99.5,70.5z M98.3,72.6&#xA;&#x9;&#x9;&#x9;&#x9;&#x9;l-0.4,0.3L96.7,71l0.4-0.3c0.5-0.3,1.1-0.3,1.5,0.3C99,71.7,98.8,72.3,98.3,72.6z"></path>
&#x9;&#x9;&#x9;&#x9;<path fill="#FFFFFF" d="M104.3,72l-1.3-0.8l-1.8,3.2l1.3,0.8c1.1,0.6,2,0.6,2.7-0.5C105.9,73.4,105.4,72.6,104.3,72z M104.3,74.1&#xA;&#x9;&#x9;&#x9;&#x9;&#x9;c-0.4,0.6-1,0.7-1.5,0.4l-0.4-0.2l1.1-1.9l0.4,0.2C104.4,72.8,104.7,73.4,104.3,74.1z"></path>
&#x9;&#x9;&#x9;&#x9;<polygon fill="#FFFFFF" points="107.3,77.8 107.7,77.2 106.1,76.3 106.5,75.7 107.9,76.4 108.2,75.8 106.8,75 107.2,74.4 &#xA;&#x9;&#x9;&#x9;&#x9;&#x9;108.7,75.2 109,74.6 106.6,73.3 104.9,76.5 &#x9;&#x9;&#x9;&#x9;"></polygon>
&#x9;&#x9;&#x9;&#x9;<path fill="#FFFFFF" d="M110.6,79.5c0.8,0.4,1.7,0.5,2.1-0.4l-1-0.5c-0.2,0.3-0.5,0.4-0.8,0.2c-0.5-0.2-0.4-0.9-0.1-1.3&#xA;&#x9;&#x9;&#x9;&#x9;&#x9;c0.2-0.5,0.6-1.1,1.1-0.8c0.4,0.2,0.5,0.5,0.4,0.8l1,0.5c0.4-0.8-0.3-1.5-1.1-1.9c-1-0.5-1.9-0.1-2.4,1&#xA;&#x9;&#x9;&#x9;&#x9;&#x9;C109.3,78.1,109.6,79,110.6,79.5z"></path>
&#x9;&#x9;&#x9;&#x9;<path fill="#FFFFFF" d="M115.8,77.7c-1.1-0.5-2-0.1-2.5,1c-0.5,1.1-0.1,2,1,2.5c1.1,0.5,2,0.1,2.5-1&#xA;&#x9;&#x9;&#x9;&#x9;&#x9;C117.3,79.1,117,78.1,115.8,77.7z M115.9,79.8c-0.2,0.5-0.6,1-1.2,0.8c-0.6-0.3-0.5-0.9-0.3-1.4c0.2-0.5,0.6-1.1,1.2-0.8&#xA;&#x9;&#x9;&#x9;&#x9;&#x9;C116.2,78.6,116.1,79.2,115.9,79.8z"></path>
&#x9;&#x9;&#x9;&#x9;<polygon fill="#FFFFFF" points="119.2,83 119.4,82.4 117.9,81.8 119,79 118,78.7 116.7,82.1 &#x9;&#x9;&#x9;&#x9;"></polygon>
&#x9;&#x9;&#x9;&#x9;<polygon fill="#FFFFFF" points="121.8,80.1 120.9,79.8 119.6,83.2 120.6,83.5 &#x9;&#x9;&#x9;&#x9;"></polygon>
&#x9;&#x9;&#x9;&#x9;<polygon fill="#FFFFFF" points="122.1,84.1 123,81.1 123,81.1 122.8,84.3 123.7,84.6 125.5,82 125.5,82 124.5,84.9 125.3,85.2 &#xA;&#x9;&#x9;&#x9;&#x9;&#x9;126.5,81.7 125,81.2 123.7,83.4 123.7,83.4 123.9,80.8 122.4,80.3 121.2,83.8 &#x9;&#x9;&#x9;&#x9;"></polygon>
&#x9;&#x9;&#x9;&#x9;<path fill="#FFFFFF" d="M129.3,82.6l-1.2-0.3l-2.4,3.1l1,0.3l0.4-0.6l1.4,0.4l0,0.7l1.1,0.3L129.3,82.6z M127.6,84.4l0.9-1.3l0,0&#xA;&#x9;&#x9;&#x9;&#x9;&#x9;l0,1.6L127.6,84.4z"></path>
&#x9;&#x9;&#x9;&#x9;<polygon fill="#FFFFFF" points="111.2,101.4 111.2,101.4 111.2,101.4 &#x9;&#x9;&#x9;&#x9;"></polygon>
&#x9;&#x9;&#x9;&#x9;<path fill="#FFFFFF" d="M59.6,70.7v10.4c0,3.5-2.8,6.2-6.2,6.2c1-1.2,1.4-2.3,1.4-3.6V66.5C56.1,68.4,57.8,69.8,59.6,70.7z"></path>
&#x9;&#x9;&#x9;&#x9;<path fill="#FFFFFF" d="M53.4,65.1V84c0,3.5-2.8,6.2-6.2,6.2c0,0,0,0,0,0c1-1.2,1.4-2.3,1.4-3.6V65.6l4.7-2.2v0l0,0L53.4,65.1z"></path>
&#x9;&#x9;&#x9;&#x9;<path fill="#FFFFFF" d="M95.7,108.1c-0.1-0.2-0.3-0.3-0.5-0.4l-2.6-5.4c0.3-0.4,0.5-0.8,0.5-1.2c0-0.2,0-0.3-0.1-0.5&#xA;&#x9;&#x9;&#x9;&#x9;&#x9;c-0.3-0.6-0.8-0.8-1.5-0.6l-0.1-0.3c0.4-0.5,0.5-1.1,0.3-1.5c-0.2-0.3-0.4-0.4-0.7-0.6c0.4-0.6,0.9-1.4,0.9-2.9&#xA;&#x9;&#x9;&#x9;&#x9;&#x9;c0-0.5-0.2-1-0.3-1.5c-0.3-1.2-0.4-2-0.2-3c-1.5,0.3-2.4,1.2-2.9,1.9c-0.2-0.6-0.2-1-0.2-1c-1.3,0.8-2.4,2.1-2.6,3.5&#xA;&#x9;&#x9;&#x9;&#x9;&#x9;c-0.5,3.3,0.8,4.3,1.5,4.9c-0.2,0.4-0.1,0.7,0.1,1.1c0.2,0.3,0.6,0.5,1.2,0.5c0,0,0.1,0,0.1,0c0.1,0,0.1,0,0.2,0l0.2,0.3&#xA;&#x9;&#x9;&#x9;&#x9;&#x9;c-0.5,0.5-0.6,1.1-0.3,1.6c0.2,0.3,0.6,0.5,1.2,0.5c0.1,0,0.3,0,0.4-0.1l3.2,5.1c0,0.1,0,0.1,0,0.2c0,0.3,0.1,0.6,0.3,0.9&#xA;&#x9;&#x9;&#x9;&#x9;&#x9;c0.2,0.2,0.5,0.4,0.8,0.4h0.1c0.3,0,0.6-0.1,0.8-0.3c0.3-0.2,0.4-0.6,0.4-0.9C96,108.7,95.9,108.4,95.7,108.1z M86.5,97.2&#xA;&#x9;&#x9;&#x9;&#x9;&#x9;c-0.3-0.7-0.4-3.7,1.4-4.8c-0.1,1.6,0.2,2.3,0.2,2.3s0.5-2.1,2.2-3.2c0.1-0.1,0.3-0.1,0.4-0.2c-0.5,1.9,1.1,2.9,0.2,5.1&#xA;&#x9;&#x9;&#x9;&#x9;&#x9;c-0.3,0.7-1.5,1-1.7-1.7c-0.2,0.2-0.7,2.2,0.9,3.3c-0.3,0.3-0.8,0.5-1.1,0.3c-1.7-1.3-1.5-4-1.5-4s-1.2,3.1,1.2,4.7&#xA;&#x9;&#x9;&#x9;&#x9;&#x9;C87.4,99.3,86.8,97.9,86.5,97.2z M88.9,100.5c-0.5,0.1-0.8,0-0.9-0.2c-0.1-0.2-0.1-0.4,0-0.7c0.2,0,0.9,0,1.5-0.4&#xA;&#x9;&#x9;&#x9;&#x9;&#x9;c0.6-0.3,0.9-0.9,1-1.1c0.3,0,0.4,0.1,0.6,0.3c0.1,0.2,0,0.6-0.4,0.9c-0.2,0.3-0.5,0.5-0.9,0.7&#xA;&#x9;&#x9;&#x9;&#x9;&#x9;C89.5,100.4,89.2,100.5,88.9,100.5z M91.2,101.1c-0.2,0.2-0.4,0.3-0.6,0.4c-0.2,0.1-0.5,0.2-0.7,0.3l-0.4-0.7&#xA;&#x9;&#x9;&#x9;&#x9;&#x9;c0.3-0.1,0.5-0.2,0.8-0.3c0.3-0.1,0.5-0.3,0.7-0.5L91.2,101.1z M90.3,103L90.3,103c-0.1,0-0.2,0-0.3,0c-0.4,0-0.7,0-0.8-0.2&#xA;&#x9;&#x9;&#x9;&#x9;&#x9;c0-0.1-0.1-0.2-0.1-0.3c0-0.1,0-0.3,0.2-0.4l0.3,0.5l0,0c0,0,0.4-0.1,0.5-0.1c0.3-0.1,0.5-0.2,0.7-0.3c0.6-0.3,1-0.8,1-0.8l0,0&#xA;&#x9;&#x9;&#x9;&#x9;&#x9;v0l-0.2-0.5c0,0,0.1,0,0.1,0c0.2,0,0.4,0.1,0.5,0.3c0.1,0.2,0,0.5-0.3,0.8c0,0.1-0.1,0.1-0.1,0.2c-0.1,0.1-0.1,0.1-0.2,0.2&#xA;&#x9;&#x9;&#x9;&#x9;&#x9;c-0.2,0.1-0.4,0.3-0.6,0.4c-0.2,0.1-0.5,0.2-0.7,0.3C90.5,102.9,90.4,103,90.3,103z M93.9,108.1l-2.8-4.5&#xA;&#x9;&#x9;&#x9;&#x9;&#x9;c0.2-0.1,0.4-0.2,0.6-0.3c0.2-0.1,0.4-0.2,0.5-0.3l2.2,4.8C94.2,107.8,94.1,107.9,93.9,108.1C93.9,108,93.9,108.1,93.9,108.1z&#xA;&#x9;&#x9;&#x9;&#x9;&#x9; M95.1,109.4c-0.1,0.1-0.3,0.2-0.4,0.1c0,0,0,0,0,0c-0.1,0-0.3-0.1-0.4-0.2v0c0,0,0,0,0,0v0l0,0c-0.1-0.1-0.1-0.2-0.1-0.3&#xA;&#x9;&#x9;&#x9;&#x9;&#x9;c0-0.1,0-0.2,0.1-0.3c0-0.1,0.1-0.1,0.1-0.2c0.1-0.1,0.3-0.1,0.4-0.1h0.1c0.1,0,0.1,0,0.2,0.1l0,0c0.1,0,0.1,0.1,0.1,0.1&#xA;&#x9;&#x9;&#x9;&#x9;&#x9;c0,0,0.1,0.1,0.1,0.1C95.4,108.9,95.3,109.2,95.1,109.4z"></path>
&#x9;&#x9;&#x9;&#x9;<path fill="#FFFFFF" d="M113.8,100.5L113.8,100.5c0.2-0.1,0.3-0.3,0.4-0.4c0-0.1,0-0.1,0-0.2c0.1-0.1,0.2-0.3,0.1-0.6&#xA;&#x9;&#x9;&#x9;&#x9;&#x9;c-0.1-0.3-0.4-0.3-0.7-0.3l-0.1,0c0-0.1-0.1-0.1-0.2-0.1c-0.1-0.1-0.4,0-0.7,0c-1,0.2-1.5,0.8-1.7,1.1c-0.1,0.1-0.1,0.2-0.3,0.3&#xA;&#x9;&#x9;&#x9;&#x9;&#x9;c-0.2,0.2-0.4,0.7-0.4,0.9c0,0,0,0,0,0.1l-0.1,0c-0.3,0.1-0.5,0.2-0.6,0.3c-0.1,0.1-0.2,0.1-0.4,0.2c-0.2,0.1-0.4,0.2-0.5,0.4&#xA;&#x9;&#x9;&#x9;&#x9;&#x9;c-0.3,0.1-0.8,0.3-1.1,0.3c-0.1,0-0.2,0.1-0.3,0.1c-0.3,0.1-0.4,0.2-0.4,0.2c-0.1-0.1-0.2-0.7-0.2-1c0-0.3-0.1-0.5-0.2-0.8&#xA;&#x9;&#x9;&#x9;&#x9;&#x9;c0.2,0,0.3,0,0.5,0.1c0.1,0,0.2,0,0.3,0c0.3,0.1,0.6,0,0.8-0.1c0.2,0.3,0.6,0.4,1,0.2c0.2-0.1,0.4-0.2,0.5-0.5&#xA;&#x9;&#x9;&#x9;&#x9;&#x9;c0.1-0.2,0.1-0.5,0-0.7c-0.1-0.2-0.3-0.4-0.5-0.4c-0.2,0-0.4,0-0.6,0.1c-0.1,0-0.2,0.1-0.2,0.1c0-0.1-0.1-0.1-0.2-0.2&#xA;&#x9;&#x9;&#x9;&#x9;&#x9;c-0.1-0.1-0.3-0.2-0.3-0.3c0.2-0.1,0.5-0.2,0.6-0.3c0.1-0.1,0.2-0.2,0.3-0.3c0.1-0.1,0.1-0.1,0.2-0.2c0,0,0,0,0,0&#xA;&#x9;&#x9;&#x9;&#x9;&#x9;c0.6,0.2,1.4-0.1,1.8-0.6c0.1-0.2,0.4-0.7,0.4-1c0.1-0.2,0.3-0.4,0.2-0.6c-0.1-0.1-0.1-0.1-0.3-0.1c-0.1,0-0.2,0-0.3,0l-0.2,0&#xA;&#x9;&#x9;&#x9;&#x9;&#x9;c-0.5,0.1-1.2,0.1-1.6,0.4c-0.3,0.2-0.5,0.4-0.6,0.7c-0.1,0-0.2,0-0.3,0c-0.1,0-0.2,0-0.3-0.1h0c-0.1,0-0.4-0.1-0.6-0.2&#xA;&#x9;&#x9;&#x9;&#x9;&#x9;c-0.2-0.1-0.3-0.2-0.4-0.3c0,0-0.1-0.1-0.1-0.1c0.4-0.2,0.6-0.5,0.8-0.8c0.2,0.1,0.4,0.1,0.6,0c0.3-0.1,0.5-0.2,0.7-0.5&#xA;&#x9;&#x9;&#x9;&#x9;&#x9;c0.2-0.2,0.2-0.5,0.1-0.7c-0.1-0.3-0.2-0.4-0.5-0.5c-0.2-0.1-0.4-0.1-0.7,0c-0.3,0.1-0.5,0.2-0.6,0.4c0,0.1-0.1,0.1-0.1,0.2&#xA;&#x9;&#x9;&#x9;&#x9;&#x9;c-0.3,0-0.6,0-0.8,0.1l-0.3,0.1c-0.4,0.1-0.7,0.1-1.2,0.1l-0.1,0c-0.7-0.1-1.3-0.2-2.2,0.2c-0.8,0.4-1.2,1-1.5,1.8l0,0.1&#xA;&#x9;&#x9;&#x9;&#x9;&#x9;c0,0,0,0.1,0,0.1c-0.2,0.4-0.3,1.3,0,1.9c0.3,0.7,1.5,0.2,1.5,0.2l0,0c0.1,0.2,0.2,0.3,0.2,0.4c0,0,0,0,0,0.1&#xA;&#x9;&#x9;&#x9;&#x9;&#x9;c0.1,0.1,0.1,0.3,0.2,0.5l0,0c0,0.1,0,0.1,0,0.1l0.3,0.8c0.1,0.3,0.3,0.6,0.4,1l0.1,0.2c0.1,0.2,0.1,0.3,0.1,0.4&#xA;&#x9;&#x9;&#x9;&#x9;&#x9;c0,0.1,0.1,0.3,0.2,0.5c0.3,0.9,0.7,2.1,1.4,2.8c0.3,0.3,0.7,0.5,1.1,0.5c0.1,0,0.2,0,0.3,0c0.4-0.1,0.7-0.3,0.8-0.4&#xA;&#x9;&#x9;&#x9;&#x9;&#x9;c0.6-0.4,1.9-1.2,2.5-1.5c0.1,0.1,0.2,0,0.5-0.1c0.1-0.1,0.3-0.2,0.4-0.3c0.1-0.1,0.3-0.2,0.4-0.3c0.1-0.1,0.1-0.1,0.2-0.2&#xA;&#x9;&#x9;&#x9;&#x9;&#x9;c0,0,0.1-0.1,0.2-0.2c0.1-0.1,0.2-0.1,0.2-0.2c0.1,0,0.2-0.1,0.3-0.1c0.1,0,0.1,0,0.2-0.1c0.4-0.1,0.7-0.3,1-0.6&#xA;&#x9;&#x9;&#x9;&#x9;&#x9;c0.1-0.1,0.3-0.4,0.5-0.7c0.1-0.1,0.2-0.2,0.3-0.3c0.1-0.1,0.3-0.3,0.4-0.5c0-0.1,0-0.3-0.1-0.4&#xA;&#x9;&#x9;&#x9;&#x9;&#x9;C114,100.6,113.9,100.5,113.8,100.5z M108.2,100.4C108.2,100.4,108.2,100.3,108.2,100.4c0.1-0.1,0.1-0.2,0.1-0.2&#xA;&#x9;&#x9;&#x9;&#x9;&#x9;c0,0,0.1,0,0.1-0.1c0.1,0,0.2-0.1,0.3-0.1c0,0,0,0,0.1,0c0.1,0,0.1,0,0.1,0.1c0,0,0,0.1,0,0.2c-0.1,0.1-0.1,0.2-0.3,0.3&#xA;&#x9;&#x9;&#x9;&#x9;&#x9;c-0.2,0.1-0.4,0-0.4-0.1C108.2,100.5,108.2,100.4,108.2,100.4L108.2,100.4z M108.5,97.7c-0.1-0.2,0.2-0.4,0.4-0.6&#xA;&#x9;&#x9;&#x9;&#x9;&#x9;c0.4-0.2,1-0.3,1.4-0.3l0.1,0l0,0l0,0c0,0.2-0.2,0.6-0.3,0.7c-0.3,0.3-0.9,0.5-1.3,0.4c0,0-0.1,0-0.1-0.1c0,0,0,0,0,0&#xA;&#x9;&#x9;&#x9;&#x9;&#x9;C108.5,97.9,108.5,97.8,108.5,97.7C108.5,97.8,108.5,97.8,108.5,97.7C108.5,97.7,108.5,97.7,108.5,97.7z M107,95.1&#xA;&#x9;&#x9;&#x9;&#x9;&#x9;c0,0,0-0.1,0-0.1c0,0,0-0.1,0.1-0.1c0.1-0.1,0.2-0.2,0.3-0.2c0.2,0,0.3,0,0.4,0c0.1,0,0.1,0.1,0.1,0.1c0,0.1,0,0.2-0.1,0.3&#xA;&#x9;&#x9;&#x9;&#x9;&#x9;c-0.1,0.1-0.2,0.2-0.4,0.2c-0.1,0-0.3,0-0.4,0c0,0-0.1-0.1-0.1-0.1C107,95.2,107,95.2,107,95.1C107,95.1,107,95.1,107,95.1z&#xA;&#x9;&#x9;&#x9;&#x9;&#x9; M107.6,100c0.1,0,0.1,0.1,0.2,0.1c0,0.1,0,0.1,0,0.2c0,0,0,0,0,0c-0.1,0.1-0.4,0.2-0.6,0.2c-0.1,0-0.2,0-0.3,0&#xA;&#x9;&#x9;&#x9;&#x9;&#x9;c-0.3,0-0.5,0-0.7-0.2l-0.2-0.7c0.1,0.1,0.2,0.2,0.3,0.3c0.1,0.1,0.3,0.2,0.4,0.3c0.1,0,0.2,0.1,0.2,0.1c0.1,0,0.2,0,0.3,0&#xA;&#x9;&#x9;&#x9;&#x9;&#x9;c0.1-0.1,0.1-0.1,0-0.2c0-0.1-0.1-0.1-0.2-0.1c0,0,0,0,0,0l-0.1,0c0,0-0.1,0-0.1,0c-0.1,0-0.2-0.1-0.3-0.2c0,0-0.1-0.1-0.1-0.1&#xA;&#x9;&#x9;&#x9;&#x9;&#x9;c-0.3-0.3-0.4-0.6-0.6-0.9c0,0-0.1-0.1-0.1-0.1c-0.1-0.2-0.1-0.3-0.1-0.4c0.4,0.3,0.5,0.4,0.7,0.4c0,0,0.1,0,0.1,0.1&#xA;&#x9;&#x9;&#x9;&#x9;&#x9;c0.1,0.1,0.4,0.3,0.5,0.6c0,0,0.1,0.1,0.1,0.1c0,0,0.1,0.1,0.1,0.1C107.1,99.7,107.4,99.8,107.6,100z M106.5,97.5&#xA;&#x9;&#x9;&#x9;&#x9;&#x9;c0.3,0.1,0.6,0.2,0.8,0.3l0,0c0.1,0,0.2,0,0.4,0c0.1,0,0.3,0,0.4,0.1l0,0.1c0,0,0.1,0.1,0.1,0.1c0,0,0,0.1-0.1,0.1&#xA;&#x9;&#x9;&#x9;&#x9;&#x9;c-0.1,0.1-0.1,0.1-0.2,0.2c-0.1,0.1-0.4,0.3-0.7,0.3c-0.1-0.1-0.2-0.3-0.3-0.4c0.1,0,0.1,0,0.1,0c0,0,0,0,0,0&#xA;&#x9;&#x9;&#x9;&#x9;&#x9;c0.1,0,0.2-0.1,0.2-0.1c0-0.1,0-0.1,0-0.2c0-0.1-0.1-0.1-0.2-0.1l0,0h-0.1c-0.1,0-0.2,0-0.3-0.1c0,0-0.1,0-0.1,0&#xA;&#x9;&#x9;&#x9;&#x9;&#x9;c-0.3-0.1-0.9-0.5-1.1-0.7c0,0,0,0,0,0c0.2-0.1,0.3-0.1,0.4-0.2c0.1,0.1,0.2,0.2,0.3,0.2C106.1,97.3,106.3,97.4,106.5,97.5z&#xA;&#x9;&#x9;&#x9;&#x9;&#x9; M102.4,98c0,0-0.3,0.3-0.4,0.3c0,0-0.2,0.2-0.5,0.5c-0.7,0.3-1-0.9-0.6-1.6l0-0.1c0.2-0.7,0.5-1.2,1.2-1.5&#xA;&#x9;&#x9;&#x9;&#x9;&#x9;c0.4-0.2,0.7-0.3,1.1-0.3c0.2,0,0.4,0,0.7,0.1l0.1,0c0.6,0.1,1,0,1.4-0.1c0.1,0,0.2,0,0.3,0c0.2,0,0.5-0.1,0.7-0.1&#xA;&#x9;&#x9;&#x9;&#x9;&#x9;c0,0.1,0.1,0.2,0.1,0.3c-0.1,0.2-0.4,0.6-0.9,0.8c-0.2,0.1-1,0.3-1.1,0.4c-0.1,0-0.6,0.2-0.7,0.2C103.5,97.2,102.4,98,102.4,98z&#xA;&#x9;&#x9;&#x9;&#x9;&#x9; M106.8,105.7c-0.3,0.2-0.9,0.6-1.5,0c-0.6-0.6-1-1.8-1.3-2.6l0,0c-0.1-0.2-0.1-0.4-0.2-0.5c0-0.1-0.1-0.3-0.2-0.6&#xA;&#x9;&#x9;&#x9;&#x9;&#x9;c-0.2-0.5-0.5-1.2-0.6-1.4c0,0,0-0.1-0.1-0.2l-0.2-0.4c-0.1-0.3-0.3-0.6-0.4-0.9c0.3-0.3,1.4-1.2,2.4-1.4&#xA;&#x9;&#x9;&#x9;&#x9;&#x9;c0.1,0.1,0.1,0.3,0.2,0.6c0,0.2,0.1,0.5,0.2,0.8c0.1,0.3,0.2,0.6,0.3,1l0.2,0.6c0.1,0.4,0.2,0.9,0.3,1.3&#xA;&#x9;&#x9;&#x9;&#x9;&#x9;c0.1,0.7,0.2,1.1,0.3,1.2c0.3,0.3,0.7,0.1,1.1,0c0.1,0,0.1-0.1,0.2-0.1c0.2,0,0.5-0.1,0.9-0.3c0,0,0,0.1,0.1,0.1&#xA;&#x9;&#x9;&#x9;&#x9;&#x9;c0.1,0.1,0.2,0.3,0.2,0.4c0.1,0.2,0.3,0.7,0.5,1C108.7,104.6,107.5,105.3,106.8,105.7z M110,104c-0.1,0-0.1,0.1-0.2,0.1&#xA;&#x9;&#x9;&#x9;&#x9;&#x9;c0,0,0,0-0.1,0c-0.1-0.2-0.4-0.6-0.5-1.1c-0.1-0.2-0.2-0.4-0.3-0.5c0,0-0.1-0.1-0.1-0.1c0,0,0.1,0,0.1-0.1l0,0&#xA;&#x9;&#x9;&#x9;&#x9;&#x9;c0,0,0.1,0,0.1-0.1l0.1,0c0.1,0.1,0.1,0.3,0.2,0.4c0.1,0.3,0.4,0.9,0.6,1.2c0,0,0,0,0,0C110.1,103.9,110.1,104,110,104z&#xA;&#x9;&#x9;&#x9;&#x9;&#x9; M110.8,103.4c-0.1,0-0.1,0.1-0.2,0.1c0,0,0,0,0,0c-0.1-0.2-0.4-0.7-0.6-1.2c-0.1-0.2-0.1-0.3-0.2-0.4c0,0,0,0,0.1,0l0,0&#xA;&#x9;&#x9;&#x9;&#x9;&#x9;c0,0,0.1,0,0.1,0l0.2-0.1c0,0,0,0,0.2,0.2c0.3,0.3,0.4,0.5,0.6,0.8c0.1,0.2,0.1,0.3,0.1,0.3L110.8,103.4z M113.7,100.1l-0.1,0.1&#xA;&#x9;&#x9;&#x9;&#x9;&#x9;c-0.1,0.1-0.1,0.1-0.4,0.2c-0.4,0.3-0.9,1-0.9,1.2c0,0.1,0,0.2,0.1,0.2c0.1,0.1,0.1,0.1,0.2,0.1c0.1,0,0.3-0.2,0.4-0.4&#xA;&#x9;&#x9;&#x9;&#x9;&#x9;c0,0,0,0,0,0c0.3-0.3,0.5-0.5,0.7-0.5c0,0,0.1,0,0.1,0l0,0c0,0.1-0.1,0.1-0.2,0.2c-0.1,0.1-0.3,0.2-0.4,0.4l0,0&#xA;&#x9;&#x9;&#x9;&#x9;&#x9;c-0.1,0.1-0.3,0.5-0.4,0.6c-0.3,0.3-0.5,0.4-0.8,0.5l-0.2,0c0,0-0.1,0-0.2,0.1c0-0.1-0.1-0.2-0.2-0.3c-0.2-0.4-0.3-0.6-0.6-0.9&#xA;&#x9;&#x9;&#x9;&#x9;&#x9;c0-0.1-0.1-0.1-0.2-0.2c0,0,0.1-0.6,0.7-1.3c0.5-0.6,1.3-0.9,1.5-0.8c0,0,0,0,0,0c-0.4,0.1-0.7,0.3-0.9,0.6l-0.1,0.1&#xA;&#x9;&#x9;&#x9;&#x9;&#x9;c-0.1,0.1-0.2,0.2-0.3,0.3c-0.1,0.2-0.1,0.2-0.1,0.3c0,0,0.1,0.1,0.1,0.1h0c0.1,0,0.1,0,0.1-0.1c0.3-0.4,1.1-1.1,1.6-1.2l0.1,0&#xA;&#x9;&#x9;&#x9;&#x9;&#x9;c0.3-0.1,0.4,0.1,0.4,0.1c-0.4,0-0.8,0.3-1.1,0.6c-0.1,0-0.1,0.1-0.1,0.1c-0.1,0.1-0.3,0.3-0.4,0.4c0,0,0,0-0.1,0.1l0,0.1&#xA;&#x9;&#x9;&#x9;&#x9;&#x9;c-0.1,0.1,0,0.1,0,0.2c0.1,0,0.2,0,0.2,0l0-0.1c0,0,0-0.1,0-0.1c0.1-0.1,0.3-0.3,0.3-0.3c0,0,0.1-0.1,0.1-0.1l0,0&#xA;&#x9;&#x9;&#x9;&#x9;&#x9;c0.2-0.1,0.5-0.4,0.8-0.5C113.8,99.8,113.8,100,113.7,100.1z"></path>
&#x9;&#x9;&#x9;&#x9;<polygon fill="#FFFFFF" points="74.3,113.7 74.9,113.4 74.3,112 75,111.7 75.6,113.3 76.2,113 75.2,110.6 72,112 73,114.4 &#xA;&#x9;&#x9;&#x9;&#x9;&#x9;73.6,114.1 73,112.6 73.7,112.3 &#x9;&#x9;&#x9;&#x9;"></polygon>
&#x9;&#x9;&#x9;&#x9;<path fill="#FFFFFF" d="M76.1,115.8c0-0.3-0.1-0.6,0.1-0.7c0.2-0.1,0.4,0,0.5,0.2c0.1,0.1,0.1,0.3,0.1,0.4c0,0.1-0.1,0.2-0.2,0.2&#xA;&#x9;&#x9;&#x9;&#x9;&#x9;l0.4,0.8c0.8-0.3,0.7-1.1,0.4-1.7c-0.3-0.6-0.8-1.2-1.6-0.8c-0.3,0.2-0.6,0.5-0.5,0.8c0,0.8,0.4,1.4,0,1.6&#xA;&#x9;&#x9;&#x9;&#x9;&#x9;c-0.2,0.1-0.4-0.1-0.5-0.3c-0.1-0.3-0.1-0.6,0.2-0.7l-0.4-0.8c-0.9,0.4-0.8,1.2-0.4,1.9c0.3,0.7,1,1.2,1.6,0.9&#xA;&#x9;&#x9;&#x9;&#x9;&#x9;C76.5,117.2,76.2,116.4,76.1,115.8z"></path>
&#x9;&#x9;&#x9;&#x9;<polygon fill="#FFFFFF" points="79.1,120 79.7,119.7 78.2,117 77.6,117.4 78.1,118.3 75.6,119.7 76.1,120.5 78.6,119.1 &#x9;&#x9;&#x9;&#x9;"></polygon>
&#x9;&#x9;&#x9;&#x9;<path fill="#FFFFFF" d="M81.8,123.1l-0.5-0.8l-1.8,1.2c-0.4,0.2-0.7,0.2-1-0.2c-0.2-0.4-0.1-0.7,0.2-1l1.8-1.2l-0.5-0.8l-1.9,1.2&#xA;&#x9;&#x9;&#x9;&#x9;&#x9;c-0.8,0.6-0.7,1.4-0.3,2.1c0.5,0.7,1.2,1.1,2,0.6L81.8,123.1z"></path>
&#x9;&#x9;&#x9;&#x9;<path fill="#FFFFFF" d="M83.3,125.1l-0.9-1.1l-2.8,2.1l0.9,1.2c0.7,0.9,1.5,1.3,2.6,0.5C84.1,126.9,84,126,83.3,125.1z M82.5,126.9&#xA;&#x9;&#x9;&#x9;&#x9;&#x9;c-0.6,0.4-1.2,0.3-1.5-0.1l-0.3-0.3l1.7-1.3l0.3,0.3C83,125.9,83,126.5,82.5,126.9z"></path>
&#x9;&#x9;&#x9;&#x9;<polygon fill="#FFFFFF" points="85.1,127.3 82.4,129.6 83,130.3 85.7,128.1 &#x9;&#x9;&#x9;&#x9;"></polygon>
&#x9;&#x9;&#x9;&#x9;<path fill="#FFFFFF" d="M87.1,129.7l-3.5,1.4l0.6,0.7l0.7-0.3l0.9,1l-0.4,0.6l0.7,0.8l1.7-3.4L87.1,129.7z M86.9,130.5l-0.8,1.3&#xA;&#x9;&#x9;&#x9;&#x9;&#x9;l-0.6-0.7L86.9,130.5L86.9,130.5z"></path>
&#x9;&#x9;&#x9;&#x9;<polygon fill="#FFFFFF" points="92.6,135.3 90.2,137.9 92,139.6 92.5,139.1 91.3,138 93.3,135.9 &#x9;&#x9;&#x9;&#x9;"></polygon>
&#x9;&#x9;&#x9;&#x9;<path fill="#FFFFFF" d="M95.6,140.3c-0.2,0.4-0.5,0.6-0.9,0.4c-0.4-0.2-0.5-0.6-0.3-1l1-2l-0.8-0.4l-1,2c-0.4,0.9,0.1,1.6,0.8,2&#xA;&#x9;&#x9;&#x9;&#x9;&#x9;c0.8,0.4,1.6,0.4,2.1-0.5l1-2l-0.8-0.4L95.6,140.3z"></path>
&#x9;&#x9;&#x9;&#x9;<path fill="#FFFFFF" d="M99.3,141.9c-0.5,0-0.7-0.6-0.7-1.1c0-0.5,0.1-1.2,0.6-1.2c0.4,0,0.6,0.2,0.7,0.5l1,0&#xA;&#x9;&#x9;&#x9;&#x9;&#x9;c0-0.9-0.8-1.2-1.7-1.1c-1,0.1-1.6,0.7-1.5,1.9c0,1.2,0.6,1.8,1.7,1.8c0.8,0,1.6-0.4,1.6-1.3l-1,0&#xA;&#x9;&#x9;&#x9;&#x9;&#x9;C99.9,141.6,99.7,141.8,99.3,141.9z"></path>
&#x9;&#x9;&#x9;&#x9;<polygon fill="#FFFFFF" points="103,137.6 103.7,138.8 102.7,139.4 102,138.2 101.2,138.6 103,141.7 103.8,141.2 103,140 &#xA;&#x9;&#x9;&#x9;&#x9;&#x9;104,139.4 104.8,140.7 105.6,140.2 103.8,137.1 &#x9;&#x9;&#x9;&#x9;"></polygon>
&#x9;&#x9;&#x9;&#x9;<path fill="#FFFFFF" d="M105.8,135.1l-0.8,0.8l1.4,3.5l0.7-0.6l-0.3-0.7l1-0.9l0.6,0.4l0.8-0.7L105.8,135.1z M106.4,137.4l-0.7-1.4&#xA;&#x9;&#x9;&#x9;&#x9;&#x9;v0l1.3,0.8L106.4,137.4z"></path>
&#x9;&#x9;&#x9;&#x9;<polygon fill="#FFFFFF" points="112.6,128.8 112.1,128.4 110.1,130.7 110.6,131.1 111.3,130.4 113.5,132.3 114.1,131.5 &#xA;&#x9;&#x9;&#x9;&#x9;&#x9;111.9,129.6 &#x9;&#x9;&#x9;&#x9;"></polygon>
&#x9;&#x9;&#x9;&#x9;<path fill="#FFFFFF" d="M115.8,128.3c0.2,0.1,0.4,0.3,0.7,0.4l0.6-0.8c-0.3-0.1-0.5-0.3-0.8-0.4c-0.5-0.3-0.8-0.4-1.2,0.1l0,0&#xA;&#x9;&#x9;&#x9;&#x9;&#x9;c0.2-0.4,0.3-0.9-0.1-1.2c-0.6-0.5-1.2,0-1.5,0.5l-1,1.2l2.8,2.2l0.6-0.7l-1.1-0.9l0.2-0.3C115.3,128,115.4,128.1,115.8,128.3z&#xA;&#x9;&#x9;&#x9;&#x9;&#x9; M114.4,127.9l-0.2,0.3l-0.6-0.5l0.2-0.3c0.2-0.2,0.4-0.4,0.7-0.2C114.8,127.4,114.6,127.7,114.4,127.9z"></path>
&#x9;&#x9;&#x9;&#x9;<path fill="#FFFFFF" d="M115.9,123.4l-0.7,0.9l2.1,3.1l0.5-0.8l-0.4-0.6l0.8-1.1l0.7,0.2l0.6-0.9L115.9,123.4z M117.1,125.5&#xA;&#x9;&#x9;&#x9;&#x9;&#x9;l-0.9-1.2l0,0l1.4,0.5L117.1,125.5z"></path>
&#x9;&#x9;&#x9;&#x9;<path fill="#FFFFFF" d="M120.6,120.7c-0.4-0.3-0.9-0.1-1.2,0.2h0c0.1-0.4,0.1-0.8-0.3-1c-0.5-0.3-1.1,0-1.4,0.5l-0.8,1.4l3,1.9&#xA;&#x9;&#x9;&#x9;&#x9;&#x9;l0.8-1.4C120.8,122.2,121.5,121.2,120.6,120.7z M118.9,121.3l-0.3,0.4l-0.6-0.4l0.3-0.4c0.1-0.2,0.3-0.3,0.5-0.1&#xA;&#x9;&#x9;&#x9;&#x9;&#x9;C119,120.9,119,121.1,118.9,121.3z M120.1,122l-0.3,0.5l-0.7-0.4l0.3-0.5c0.1-0.2,0.3-0.2,0.5-0.1&#xA;&#x9;&#x9;&#x9;&#x9;&#x9;C120.2,121.6,120.3,121.8,120.1,122z"></path>
&#x9;&#x9;&#x9;&#x9;<path fill="#FFFFFF" d="M119.7,116.8l-0.5,1l2.5,2.8l0.4-0.8l-0.5-0.5l0.6-1.2l0.7,0.1l0.5-0.9L119.7,116.8z M121.2,118.8l-1.1-1.1&#xA;&#x9;&#x9;&#x9;&#x9;&#x9;l0,0l1.5,0.3L121.2,118.8z"></path>
&#x9;&#x9;&#x9;&#x9;<path fill="#FFFFFF" d="M123.7,114.1l-2.3-1l-0.4,0.9l2.2,1c0.1,0,0.5,0.2,0.3,0.5c-0.1,0.2-0.4,0.2-0.6,0.1l-0.4,0.9&#xA;&#x9;&#x9;&#x9;&#x9;&#x9;c0.8,0.4,1.3,0.1,1.6-0.6C124.5,115.1,124.5,114.4,123.7,114.1z"></path>
&#x9;&#x9;&#x9;&#x9;<path fill="#FFFFFF" d="M126,111.2l0.4-1h-3.8l-0.4,1.1l2.8,2.5l0.3-0.9l-0.6-0.5l0.5-1.3L126,111.2z M124.2,112l-1.2-1v0l1.5,0.1&#xA;&#x9;&#x9;&#x9;&#x9;&#x9;L124.2,112z"></path>
&#x9;&#x9;&#x9;&#x9;<path fill="#FFFFFF" d="M89.2,134.1c-0.4,0-0.7,0.3-0.7,0.7c0,0.4,0.3,0.7,0.7,0.7c0.4,0,0.7-0.3,0.7-0.7&#xA;&#x9;&#x9;&#x9;&#x9;&#x9;C89.9,134.4,89.6,134.1,89.2,134.1z"></path>
&#x9;&#x9;&#x9;&#x9;<path fill="#FFFFFF" d="M109.7,133.7c-0.4,0-0.7,0.3-0.7,0.7c0,0.4,0.3,0.7,0.7,0.7s0.7-0.3,0.7-0.7&#xA;&#x9;&#x9;&#x9;&#x9;&#x9;C110.4,134,110.1,133.7,109.7,133.7z"></path>
&#x9;&#x9;&#x9;</g>
&#x9;&#x9;</g>
&#x9;</g>
&#x9;<g>
&#x9;&#x9;<g>
&#x9;&#x9;&#x9;<g>
&#x9;&#x9;&#x9;&#x9;<path fill="#FFFFFF" d="M199.8,34.6h7.3l0.2,39.2c0,2.6,0.9,4.5,2.6,5.7c1.8,1.2,4.3,1.9,7.5,1.9c2.6,0,4.6-0.8,6.2-2.2&#xA;&#x9;&#x9;&#x9;&#x9;&#x9;c1.7-1.5,2.5-3.9,2.5-7.2V34.6h5.3v38.5c0,4-1.4,7.1-4.4,9.3c-2.9,2.2-7,3.3-12.3,3.3c-5.1,0-9-1.1-11.6-3.4&#xA;&#x9;&#x9;&#x9;&#x9;&#x9;c-2.6-2.3-2.9-5-2.9-9.4L199.8,34.6z"></path>
&#x9;&#x9;&#x9;&#x9;<path fill="#FFFFFF" d="M238.3,42.1h4.3l22.3,32v-32h4.3v43h-4.3l-22.3-32.3v31.7h-4.3V42.1z"></path>
&#x9;&#x9;&#x9;&#x9;<path fill="#FFFFFF" d="M280.1,84.6V42.1h5.6v42.4H280.1z"></path>
&#x9;&#x9;&#x9;&#x9;<path fill="#FFFFFF" d="M326.4,42.1l-14.2,43.4h-3.8L294,42.1h6.5L311.3,77l11.3-34.9H326.4z"></path>
&#x9;&#x9;&#x9;&#x9;<path fill="#FFFFFF" d="M358.5,42.1v9.4h-2.5c0-2.7-0.8-4.5-2.4-5.4c-1.6-0.9-4.3-1.4-8.1-1.4h-5.2v10.8h10v3.1h-10v23.4h5.7&#xA;&#x9;&#x9;&#x9;&#x9;&#x9;c3.6,0,6.1-0.5,7.6-1.5c1.6-1,2.4-2.9,2.4-5.7h2.5v9.8h-23.8V42.1H358.5z"></path>
&#x9;&#x9;&#x9;&#x9;<path fill="#FFFFFF" d="M369,84.6V42.1h5.1v2.7c1.7-1.2,3.4-2.1,5-2.7c1.7-0.6,3.4-0.9,5.2-0.9c4.5,0,8.3,1.7,11.5,5.1&#xA;&#x9;&#x9;&#x9;&#x9;&#x9;c3.2,3.4,4.8,7.4,4.8,12.1c0,5-1.4,9.1-4.2,12.4c-2.8,3.2-6.5,5-11.2,5.3l7.8,4.5c8.3,4.7,14.2,7.5,18,8.6&#xA;&#x9;&#x9;&#x9;&#x9;&#x9;c3.6,1,5.7,1.4,10.6,1.1c5.3,0,9.7-2.1,13.6-6l-0.1,2.4c-4.1,5.4-9.1,6.7-19.1,6.7c-5.4,0-10.7-2.5-18.9-6.5&#xA;&#x9;&#x9;&#x9;&#x9;&#x9;c-8.2-4-15.8-8.4-23-13v10.6H369z M374.1,48v23.4l1.3-2.1c2.1,1.5,3.9,2.5,5.3,3.1c1.5,0.6,2.9,0.9,4.2,0.9&#xA;&#x9;&#x9;&#x9;&#x9;&#x9;c3.2,0,5.8-1.2,7.8-3.5c2.1-2.4,3.1-5.4,3.1-9.2c0-4.4-1.3-8.2-4-11.4c-2.7-3.2-5.8-4.8-9.4-4.8c-1.5,0-3,0.3-4.4,0.9&#xA;&#x9;&#x9;&#x9;&#x9;&#x9;C376.6,45.8,375.3,46.7,374.1,48z"></path>
&#x9;&#x9;&#x9;&#x9;<path fill="#FFFFFF" d="M426.7,50.7c0-2.5-0.5-4.2-1.4-5.2c-1-1.1-2.4-1.6-4.3-1.6c-1.6,0-2.9,0.4-3.9,1.1c-1,0.7-1.6,1.8-1.6,3.3&#xA;&#x9;&#x9;&#x9;&#x9;&#x9;c0,1.3,0.5,2.5,1.5,3.6c1,1.1,3.1,2.5,6.3,4.2c0.4,0.2,0.8,0.5,1.5,0.8c7.8,4.2,11.7,8.7,11.7,13.5c0,4.5-1.6,8.1-4.7,10.9&#xA;&#x9;&#x9;&#x9;&#x9;&#x9;c-3.1,2.8-7.3,4.1-12.6,4.1c-4.4,0-8.1-1.2-11-3.7c-2.9-2.5-4.4-5.5-4.4-9.1c0-3.1,1-5.7,3-7.8c2-2.1,4.5-3.1,7.5-3.1&#xA;&#x9;&#x9;&#x9;&#x9;&#x9;c2.6,0,4.8,0.6,6.5,2c1.8,1.4,2.7,3,2.7,5c0,1.4-0.5,2.6-1.4,3.4c-0.9,0.8-2.2,1.3-3.8,1.3c-0.5,0-0.9,0-1.2-0.1&#xA;&#x9;&#x9;&#x9;&#x9;&#x9;c-0.3-0.1-0.6-0.2-0.9-0.4l0.1-1.1c1.1-0.1,1.9-0.5,2.6-1.2c0.7-0.7,1-1.7,1-2.8c0-1.3-0.5-2.2-1.5-2.7c-1-0.5-2.3-0.8-3.9-0.8&#xA;&#x9;&#x9;&#x9;&#x9;&#x9;c-2.1,0-3.9,0.6-5.3,1.8c-1.4,1.2-2.1,3-2.1,5.4c0,3.2,1.3,5.7,3.9,7.7c2.6,1.9,5.7,2.9,9.3,2.9c3.5,0,6.4-0.9,8.7-2.6&#xA;&#x9;&#x9;&#x9;&#x9;&#x9;c2.3-1.8,3.4-4.2,3.4-7.3c0-1.9-0.5-3.5-1.6-4.9c-1.1-1.4-3.4-3-7-5c-0.4-0.2-1-0.6-1.8-1c-6.5-3.7-9.8-7.4-9.8-11.2&#xA;&#x9;&#x9;&#x9;&#x9;&#x9;c0-2.6,0.9-4.7,2.7-6.5c1.8-1.8,4-2.7,6.5-2.7c1,0,1.9,0.1,2.8,0.4c0.8,0.2,1.8,0.6,2.7,1.2h1.9v8H426.7z"></path>
&#x9;&#x9;&#x9;&#x9;<path fill="#FFFFFF" d="M445.7,84.6V42.1h5.6v42.4H445.7z"></path>
&#x9;&#x9;&#x9;&#x9;<path fill="#FFFFFF" d="M461.8,84.6V42.1h3.6c1.2,0,2.9-0.1,5.2-0.2c2.2-0.1,3.8-0.2,4.8-0.2c6,0,10.9,1.9,14.7,5.9&#xA;&#x9;&#x9;&#x9;&#x9;&#x9;c3.8,4,5.8,9,5.8,15.1c0,6.3-2,11.6-6.2,15.8c-4.1,4.2-9.4,6.3-15.7,6.3c-0.8,0-2.3-0.1-4.3-0.2c-2-0.1-3.6-0.2-4.8-0.2H461.8z&#xA;&#x9;&#x9;&#x9;&#x9;&#x9; M466.6,80.5c1.3,0.5,2.5,0.8,3.7,1.1c1.2,0.2,2.3,0.4,3.4,0.4c5,0.4,9.1-1.1,12.3-4.7c3.2-3.6,4.8-8.1,4.8-13.6&#xA;&#x9;&#x9;&#x9;&#x9;&#x9;c0-5.5-1.6-10-4.9-13.7c-3.3-3.7-7.3-5.3-12.2-4.9c-1,0-2.1,0.1-3.3,0.4c-1.2,0.3-2.4,0.6-3.8,1.1V80.5z"></path>
&#x9;&#x9;&#x9;&#x9;<path fill="#FFFFFF" d="M533.7,84.6V42.1h3.6c1.2,0,2.9-0.1,5.2-0.2c2.2-0.1,3.8-0.2,4.8-0.2c6,0,10.9,1.9,14.7,5.9&#xA;&#x9;&#x9;&#x9;&#x9;&#x9;c3.8,4,5.8,9,5.8,15.1c0,6.3-2,11.6-6.2,15.8c-4.1,4.2-9.4,6.3-15.7,6.3c-0.8,0-2.3-0.1-4.3-0.2c-2-0.1-3.6-0.2-4.8-0.2H533.7z&#xA;&#x9;&#x9;&#x9;&#x9;&#x9; M538.5,80.5c1.3,0.5,2.5,0.8,3.7,1.1c1.2,0.2,2.3,0.4,3.4,0.4c5,0.4,9.1-1.1,12.3-4.7c3.2-3.6,4.8-8.1,4.8-13.6&#xA;&#x9;&#x9;&#x9;&#x9;&#x9;c0-5.5-1.6-10-4.9-13.7c-3.3-3.7-7.3-5.3-12.2-4.9c-1,0-2.1,0.1-3.3,0.4c-1.2,0.3-2.4,0.6-3.8,1.1V80.5z"></path>
&#x9;&#x9;&#x9;&#x9;<path fill="#FFFFFF" d="M495.8,85l15.5-43.3h2.6l15,43.3h-6.8l-6.4-20.5h-9.3L499.3,85H495.8z M507.5,60h6.9l-3.3-10.8L507.5,60z"></path>
&#x9;&#x9;&#x9;</g>
&#x9;&#x9;</g>
&#x9;</g>
&#x9;<g>
&#x9;&#x9;<g>
&#x9;&#x9;&#x9;<g>
&#x9;&#x9;&#x9;&#x9;<path fill="#FFFFFF" d="M199.9,163.4V121h3.6c1.2,0,2.9-0.1,5.2-0.2c2.2-0.1,3.8-0.2,4.8-0.2c6,0,10.9,1.9,14.7,5.9&#xA;&#x9;&#x9;&#x9;&#x9;&#x9;c3.8,4,5.8,9,5.8,15.1c0,6.3-2,11.6-6.2,15.8c-4.1,4.2-9.4,6.3-15.7,6.3c-0.8,0-2.3-0.1-4.3-0.2c-2-0.1-3.6-0.2-4.8-0.2H199.9z&#xA;&#x9;&#x9;&#x9;&#x9;&#x9; M204.7,159.4c1.3,0.5,2.5,0.8,3.7,1.1c1.2,0.2,2.3,0.4,3.4,0.4c5,0.4,9.1-1.1,12.3-4.7c3.2-3.6,4.8-8.1,4.8-13.6&#xA;&#x9;&#x9;&#x9;&#x9;&#x9;c0-5.5-1.6-10-4.9-13.7c-3.3-3.7-7.3-5.3-12.2-4.9c-1,0-2.1,0.1-3.3,0.4c-1.2,0.3-2.4,0.6-3.8,1.1V159.4z"></path>
&#x9;&#x9;&#x9;&#x9;<path fill="#FFFFFF" d="M264,121v9.4h-2.4c0-2.7-0.8-4.5-2.4-5.4c-1.6-0.9-4.2-1.4-8-1.4h-5v10.8h9.8v3.1h-9.8v23.4h5.5&#xA;&#x9;&#x9;&#x9;&#x9;&#x9;c3.5,0,6-0.5,7.5-1.5c1.6-1,2.3-2.9,2.3-5.7h2.4v9.8h-23.5V121H264z"></path>
&#x9;&#x9;&#x9;</g>
&#x9;&#x9;&#x9;<g>
&#x9;&#x9;&#x9;&#x9;<path fill="#FFFFFF" d="M398.9,121v39.6h2.2c2.8,0,6.4-0.2,7.9-0.2c2.4,0,4.9-3.3,4.4-7l3,0.1v9.8h-23V121H398.9z"></path>
&#x9;&#x9;&#x9;&#x9;<path fill="#FFFFFF" d="M425.9,163.4V121h5.6v42.4H425.9z"></path>
&#x9;&#x9;&#x9;&#x9;<path fill="#FFFFFF" d="M442.2,121h10.3l9.5,20.4l9-20.4h9.5v42.4h-6.8l0-39.6l-13,27.6l-14-27.6v39.6h-4.5V121z"></path>
&#x9;&#x9;&#x9;&#x9;<path fill="#FFFFFF" d="M485.3,163.9l15.5-43.3h2.6l15,43.3h-6.8l-6.4-20.5h-9.3l-7.1,20.5H485.3z M497,138.9h6.9l-3.3-10.8&#xA;&#x9;&#x9;&#x9;&#x9;&#x9;L497,138.9z"></path>
&#x9;&#x9;&#x9;&#x9;<path fill="#FFFFFF" d="M361.5,164.7c-6.6,0-12-2.1-16.3-6.2c-4.3-4.2-6.4-9.4-6.4-15.8c0-6.1,2.1-11.3,6.5-15.5&#xA;&#x9;&#x9;&#x9;&#x9;&#x9;c4.4-4.3,9.7-6.4,15.9-6.4c6.5,0,11.9,2.1,16.4,6.4c4.5,4.3,6.7,9.4,6.7,15.5c0,6.2-2.1,11.4-6.5,15.6&#xA;&#x9;&#x9;&#x9;&#x9;&#x9;C373.5,162.5,368.1,164.7,361.5,164.7z M363.4,160.2c4.7,0,8.4-1.4,11.3-4.1c2.9-2.7,4.4-6.3,4.4-10.6c0-2.6-0.4-5.1-1.4-7.6&#xA;&#x9;&#x9;&#x9;&#x9;&#x9;c-1-2.4-2.3-4.7-4.2-6.7c-2-2.2-4.2-3.9-6.6-5c-2.4-1.2-5-1.7-7.9-1.7c-4.3,0-7.8,1.3-10.5,4.2c-2.7,2.8-4,6.5-4,11.1&#xA;&#x9;&#x9;&#x9;&#x9;&#x9;c0,2.7,0.4,5.2,1.3,7.6c0.9,2.4,2.2,4.6,3.9,6.5c1.9,2.1,4,3.7,6.2,4.7C358.1,159.6,360.6,160.2,363.4,160.2z"></path>
&#x9;&#x9;&#x9;</g>
&#x9;&#x9;</g>
&#x9;&#x9;<path fill="#FFFFFF" d="M333.6,155.4l1.9,2.3c-2.6,2.3-5.4,4-8.5,5.1c-3.1,1.1-6.4,1.7-10.1,1.7c-7.9,0-14.3-2.4-19.4-7.4&#xA;&#x9;&#x9;&#x9;c-5-5-7.6-11.2-7.6-18.7c0-7.3,2.6-13.4,7.7-18.4c5.1-5.1,11.4-7.6,18.8-7.6c2.5,0,5,0.3,7.5,1c2.5,0.7,5,1.7,7.5,3.1l2.2,1.4v9.3&#xA;&#x9;&#x9;&#x9;h-2.2V127c0-3.2-1.5-5.8-4.5-8c-3.1-2.2-7-3.3-11.9-3.3c-5.6,0-10.1,1.6-13.5,5c-3.3,3.4-5,8.2-5,14.4c0,3.5,0.5,6.8,1.6,10&#xA;&#x9;&#x9;&#x9;c1.1,3.2,2.6,6,4.7,8.5c2.3,2.7,4.7,4.7,7.4,5.8c2.7,1.1,5.7,1.7,8.9,1.7c2.8,0,5.3-0.4,7.7-1.2&#xA;&#x9;&#x9;&#x9;C329.1,159.1,331.4,157.6,333.6,155.4z"></path>
&#x9;</g>
</g>
</svg>